# xmcd
#
# Track frame offsets:
#	150
#	26545
#	40058
#	60788
#	79765
#	88490
#	111718
#	127648
#	148895
#	164213
#	183573
#	203130
#	212995
#	233918
#	282155
#
# Disc length: 4360 seconds
#
# Revision: 1
# Processed by: cddbd v1.5PL3 Copyright (c) Steve Scherf et al.
# Submitted via: audiograbber 1.83.01
#
DISCID=df11060f
DTITLE=Kelly Bell Band - Live From the Recher Theatre...Finally!
DYEAR=2004
DGENRE=Phat Blues
TTITLE0=Goodnight for the Blues
TTITLE1=Spinnin'
TTITLE2=F.B.I.
TTITLE3=Dear Maggie
TTITLE4=Must've Bumped Your Head
TTITLE5=Ain't Like It Used To Be
TTITLE6=Movin' On
TTITLE7=Look My Way
TTITLE8=Popstar
TTITLE9=Longtime (Glory of Love)
TTITLE10=Cleatus
TTITLE11=Pain
TTITLE12=Lost My Baby for the Blues
TTITLE13=Say One Thing
TTITLE14=Homegrown/Only One/"The Future of the Blues"
EXTD=
EXTT0=
EXTT1=
EXTT2=
EXTT3=
EXTT4=
EXTT5=
EXTT6=
EXTT7=
EXTT8=
EXTT9=
EXTT10=
EXTT11=
EXTT12=
EXTT13=
EXTT14=Only One and "The Future of the Blues" are the two secret tracks
PLAYORDER=
